<svg xmlns="http://www.w3.org/2000/svg" width="43.809" height="57.391" viewBox="0 0 43.809 57.391">
  <g id="teacher_1_" data-name="teacher (1)" transform="translate(-14.8 -3.85)">
    <path id="패스_2329" data-name="패스 2329" d="M20.857,13.348,28.035,16.5a12.479,12.479,0,0,0-2.166,7.054,12.623,12.623,0,1,0,23.142-6.992l6.311-2.97v12L53.4,29.683a.861.861,0,0,0,.062.866,1.058,1.058,0,0,0,.8.433h3.651a.75.75,0,0,0,.743-.433.861.861,0,0,0,.062-.866L57.055,25.6V12.791c0-.5-.062-.866-.928-1.238-.186-.062-17.2-7.611-17.2-7.611a.789.789,0,0,0-.743,0L20.857,11.616a.97.97,0,0,0-.557.866.933.933,0,0,0,.557.866ZM49.2,23.558a10.767,10.767,0,1,1-21.533,0,10.966,10.966,0,0,1,2.042-6.311l8.415,3.774a1.145,1.145,0,0,0,.743,0l8.291-3.713a10.488,10.488,0,0,1,2.042,6.25Zm6.5,5.569.433-.928.371.928ZM38.554,5.8,53.59,12.482,38.554,19.164,23.518,12.482Z" transform="translate(-2.097 0)" fill="#1d1d1d"/>
    <path id="패스_2330" data-name="패스 2330" d="M36.7,59.7A21.945,21.945,0,0,0,14.8,81.6a.952.952,0,0,0,.928.928H57.68a.952.952,0,0,0,.928-.928A21.945,21.945,0,0,0,36.7,59.7ZM16.718,80.676a20.038,20.038,0,0,1,40.034,0Z" transform="translate(0 -21.292)" fill="#1d1d1d"/>
  </g>
</svg>
