<svg xmlns="http://www.w3.org/2000/svg" width="50" height="45.379" viewBox="0 0 50 45.379">
  <g id="customer-service" transform="translate(-279.176 -69.7)">
    <path id="패스_2348" data-name="패스 2348" d="M325.392,91.673h-1.553V89.489c-1.079-26.384-38.248-26.386-39.326,0v2.182h-1.556a3.81,3.81,0,0,0-3.781,3.829v4.7a3.809,3.809,0,0,0,3.781,3.828h1.554v4.421a4.714,4.714,0,0,0,4.681,4.73h7.972a2.678,2.678,0,0,0,2.542,1.9h3.766c3.559-.08,3.557-5.527,0-5.6H299.7a2.677,2.677,0,0,0-2.541,1.9h-7.972a2.915,2.915,0,0,1-2.895-2.929V106.4a3.954,3.954,0,0,0,6.078-3.237V92.535a3.882,3.882,0,0,0-1.22-2.807,3.779,3.779,0,0,0-2.862-1.022,3.713,3.713,0,0,0-1.987.585,17.869,17.869,0,0,1,35.735-.382c0,.128,0,.255,0,.382a3.725,3.725,0,0,0-1.983-.582,3.779,3.779,0,0,0-2.862,1.022,3.877,3.877,0,0,0-1.219,2.807v10.63a3.94,3.94,0,0,0,7.757.863h1.66a3.81,3.81,0,0,0,3.782-3.828V95.5a3.811,3.811,0,0,0-3.782-3.827ZM284.51,102.218h-1.553a2.012,2.012,0,0,1-2-2.021V95.5a2.012,2.012,0,0,1,2-2.02h1.554Zm15.192,9.064h3.766a.921.921,0,0,1,.692.338.942.942,0,0,1,.2.75.9.9,0,0,1-.893.9H299.7a.921.921,0,0,1-.692-.338.949.949,0,0,1-.2-.751A.9.9,0,0,1,299.7,111.282ZM288.3,90.511A2.023,2.023,0,0,1,289.89,91a2.074,2.074,0,0,1,.7,1.533v10.63c-.022,2.7-4.268,2.7-4.293,0-.007-.016,0-10.561,0-10.586a2.042,2.042,0,0,1,.573-1.453,1.986,1.986,0,0,1,1.426-.607Zm33.755,12.651a2.074,2.074,0,0,1-.7,1.533,2.2,2.2,0,0,1-3.592-1.533V92.532a2.2,2.2,0,0,1,3.606-1.51,2.076,2.076,0,0,1,.686,1.555s.006,10.548,0,10.586Zm5.337-2.964a2.013,2.013,0,0,1-2,2.021h-1.552V93.48h1.554a2.012,2.012,0,0,1,2,2.02Z" fill="#1d1d1d"/>
    <path id="패스_2349" data-name="패스 2349" d="M304.176,81.871A8.54,8.54,0,0,0,298.2,96.516v5a.9.9,0,0,0,1.52.637l3.319-3.271a8.546,8.546,0,1,0,2.4-16.923A8.446,8.446,0,0,0,304.176,81.871ZM302.9,97.055a.9.9,0,0,0-.8.24l-2.123,2.089V96.129a.891.891,0,0,0-.3-.666,6.776,6.776,0,0,1-2.271-5.044c.316-8.947,13.206-8.949,13.523,0a6.752,6.752,0,0,1-8.035,6.636Z" fill="#1d1d1d"/>
    <path id="패스_2350" data-name="패스 2350" d="M300.959,89.621a.938.938,0,1,0,.937.938h0A.938.938,0,0,0,300.959,89.621Z" fill="#1d1d1d"/>
    <path id="패스_2351" data-name="패스 2351" d="M304.175,89.621a.938.938,0,1,0,.937.938h0A.937.937,0,0,0,304.175,89.621Z" fill="#1d1d1d"/>
    <path id="패스_2352" data-name="패스 2352" d="M307.393,89.621a.938.938,0,1,0,.937.938h0A.938.938,0,0,0,307.393,89.621Z" fill="#1d1d1d"/>
  </g>
</svg>
